<svg width="37" height="37" viewBox="0 0 37 37" fill="none" xmlns="http://www.w3.org/2000/svg">
<rect width="37" height="37" rx="8" fill="white"/>
<g clip-path="url(#clip0_750_1084)">
<path d="M9.96417 17.334V12.3196C9.96417 11.8691 10.147 11.4371 10.4723 11.1186C10.7977 10.8 11.2389 10.6211 11.6991 10.6211H16.8236V8.13867H11.6991C10.5664 8.13867 9.48024 8.57916 8.67937 9.36323C7.8785 10.1473 7.42857 11.2107 7.42857 12.3196V17.3366L9.96417 17.334Z" fill="#FF615E"/>
<path d="M26.3873 19.9813V24.9932C26.3873 25.4436 26.2045 25.8756 25.8792 26.1942C25.5538 26.5127 25.1126 26.6916 24.6524 26.6916H19.5279V29.174H24.6524C25.785 29.174 26.8713 28.7336 27.6721 27.9495C28.473 27.1654 28.9229 26.102 28.9229 24.9932V19.9761L26.3873 19.9813Z" fill="#944CCD"/>
<path d="M19.5279 10.6211H24.6524C25.1126 10.6211 25.5538 10.8 25.8792 11.1186C26.2045 11.4371 26.3873 11.8691 26.3873 12.3196V17.3366H28.9229V12.3196C28.9229 11.2107 28.473 10.1473 27.6721 9.36323C26.8713 8.57916 25.785 8.13867 24.6524 8.13867H19.5279V10.6211Z" fill="#FFB524"/>
<path d="M16.8236 26.6916H11.6991C11.2389 26.6916 10.7977 26.5127 10.4723 26.1942C10.147 25.8756 9.96417 25.4436 9.96417 24.9932V19.9761H7.42857V24.9932C7.42857 26.102 7.8785 27.1654 8.67937 27.9495C9.48024 28.7336 10.5664 29.174 11.6991 29.174H16.8236V26.6916Z" fill="#4DCCC4"/>
</g>
<defs>
<clipPath id="clip0_750_1084">
<rect width="23.0286" height="23.7841" fill="white" transform="translate(7.42857 6.75)"/>
</clipPath>
</defs>
</svg>
