<svg width="168" height="28" viewBox="0 0 168 28" fill="none" xmlns="http://www.w3.org/2000/svg">
<g clip-path="url(#clip0_132_20)">
<path d="M2.86277 12.0963V6.36544C2.86277 5.85062 3.06914 5.35689 3.43647 4.99286C3.80381 4.62882 4.30202 4.42431 4.82151 4.42431H10.6073V1.58727H4.82151C3.54277 1.58727 2.3164 2.09069 1.41219 2.98677C0.50798 3.88285 0 5.09819 0 6.36544V12.0992L2.86277 12.0963Z" fill="#FF615E"/>
<path d="M21.405 15.1214V20.8493C21.405 21.3641 21.1987 21.8578 20.8313 22.2218C20.464 22.5859 19.9658 22.7904 19.4463 22.7904H13.6605V25.6274H19.4463C20.725 25.6274 21.9514 25.124 22.8556 24.2279C23.7598 23.3318 24.2678 22.1165 24.2678 20.8493V15.1154L21.405 15.1214Z" fill="#944CCD"/>
<path d="M13.6605 4.42431H19.4463C19.9658 4.42431 20.464 4.62882 20.8313 4.99286C21.1987 5.35689 21.405 5.85062 21.405 6.36544V12.0992H24.2678V6.36544C24.2678 5.09819 23.7598 3.88285 22.8556 2.98677C21.9514 2.09069 20.725 1.58727 19.4463 1.58727H13.6605V4.42431Z" fill="#FFB524"/>
<path d="M10.6073 22.7904H4.82151C4.30202 22.7904 3.80381 22.5859 3.43647 22.2218C3.06914 21.8578 2.86277 21.3641 2.86277 20.8493V15.1154H0V20.8493C0 22.1165 0.50798 23.3318 1.41219 24.2279C2.3164 25.124 3.54277 25.6274 4.82151 25.6274H10.6073V22.7904Z" fill="#4DCCC4"/>
</g>
<path d="M36.208 2.696H45.52V4.712H38.48V12.36H44.624V14.376H38.48V22.184H45.52V24.2H36.208V2.696Z" fill="white"/>
<path d="M57.4708 7.56C57.4708 5.64 56.4574 4.68 54.4308 4.68H51.1988V22.184H54.4308C56.4574 22.184 57.4708 21.2027 57.4708 19.24V7.56ZM48.9268 2.696H54.5588C56.2654 2.696 57.5561 3.13333 58.4308 4.008C59.3054 4.88267 59.7428 6.056 59.7428 7.528V19.304C59.7428 20.8187 59.3161 22.0133 58.4628 22.888C57.6094 23.7627 56.3294 24.2 54.6228 24.2H48.9268V2.696Z" fill="white"/>
<path d="M72.1858 2.696H74.4578V19.464C74.4578 20.9787 73.9991 22.2053 73.0818 23.144C72.1858 24.0613 70.8418 24.52 69.0498 24.52C67.2578 24.52 65.9031 24.0613 64.9858 23.144C64.0898 22.2053 63.6418 20.9787 63.6418 19.464V2.696H65.9138V19.4C65.9138 21.448 66.9591 22.472 69.0498 22.472C71.1404 22.472 72.1858 21.448 72.1858 19.4V2.696Z" fill="white"/>
<path d="M84.4505 7.08C84.4505 4.05067 86.3705 2.536 90.2105 2.536C91.4478 2.536 92.6852 2.70667 93.9225 3.048V5.16C92.6638 4.79733 91.4052 4.616 90.1465 4.616C88.8878 4.616 88.0025 4.84 87.4905 5.288C86.9785 5.71467 86.7225 6.35467 86.7225 7.208V19.72C86.7225 20.552 86.9785 21.192 87.4905 21.64C88.0238 22.0667 88.9412 22.28 90.2425 22.28C91.5652 22.28 92.8132 22.1093 93.9865 21.768V23.848C92.9198 24.1893 91.6612 24.36 90.2105 24.36C86.3705 24.36 84.4505 22.8453 84.4505 19.816V7.08Z" fill="white"/>
<path d="M97.3643 1.16H99.6043V6.728C100.842 6.19467 102.079 5.928 103.316 5.928C104.575 5.928 105.588 6.29067 106.356 7.016C107.146 7.74133 107.54 8.78667 107.54 10.152V24.2H105.268V10.376C105.268 8.81867 104.49 8.04 102.932 8.04C101.844 8.04 100.746 8.30667 99.6363 8.84V24.2H97.3643V1.16Z" fill="white"/>
<path d="M111.482 19.56V10.664C111.482 9.14933 111.908 7.944 112.762 7.048C113.636 6.13067 114.948 5.672 116.698 5.672C118.447 5.672 119.738 6.13067 120.57 7.048C121.423 7.944 121.85 9.14933 121.85 10.664V16.232H113.722V19.464C113.722 20.424 114.02 21.1387 114.618 21.608C115.215 22.0773 116.143 22.312 117.402 22.312C118.66 22.312 119.962 22.12 121.306 21.736V23.848C120.239 24.1893 118.97 24.36 117.498 24.36C113.487 24.36 111.482 22.76 111.482 19.56ZM113.722 14.344H119.674V10.664C119.674 8.65867 118.682 7.656 116.698 7.656C114.714 7.656 113.722 8.65867 113.722 10.664V14.344Z" fill="white"/>
<path d="M125.419 10.44C125.419 7.368 127.211 5.832 130.795 5.832C132.118 5.832 133.249 5.98133 134.187 6.28V8.36C133.163 8.08267 132.054 7.944 130.859 7.944C129.665 7.944 128.833 8.15733 128.363 8.584C127.915 8.98933 127.691 9.62933 127.691 10.504V19.72C127.691 20.616 127.915 21.2667 128.363 21.672C128.833 22.0773 129.686 22.28 130.923 22.28C132.161 22.28 133.27 22.1093 134.251 21.768V23.912C133.099 24.2107 131.947 24.36 130.795 24.36C127.211 24.36 125.419 22.8453 125.419 19.816V10.44Z" fill="white"/>
<path d="M137.583 1.16H139.823V24.2H137.583V1.16ZM145.007 5.992H147.407L143.407 14.76L147.727 24.2H145.199L140.975 14.76L145.007 5.992Z" fill="white"/>
<path d="M151.578 3.944C150.661 3.944 150.202 3.45333 150.202 2.472C150.202 1.49067 150.661 1 151.578 1C152.517 1 152.986 1.49067 152.986 2.472C152.986 3.45333 152.517 3.944 151.578 3.944ZM150.458 6.12H152.73V24.2H150.458V6.12Z" fill="white"/>
<path d="M159.322 6.824C160.751 6.22667 162.052 5.928 163.226 5.928C164.42 5.928 165.401 6.30133 166.169 7.048C166.937 7.77333 167.322 8.808 167.322 10.152V24.2H165.049V10.376C165.049 8.81867 164.26 8.04 162.682 8.04C161.679 8.04 160.591 8.31733 159.418 8.872V24.2H157.146V5.992H159.322V6.824Z" fill="white"/>
<defs>
<clipPath id="clip0_132_20">
<rect width="26" height="27.1818" fill="white"/>
</clipPath>
</defs>
</svg>
