<svg width="44" height="40" viewBox="0 0 44 40" fill="none" xmlns="http://www.w3.org/2000/svg">
<g clip-path="url(#clip0_547_826)">
<path d="M9.88456 17.6204V10.4568C9.88456 9.81332 10.144 9.19615 10.6058 8.74111C11.0676 8.28607 11.6939 8.03043 12.347 8.03043H19.6206V4.48413H12.347C10.7394 4.48413 9.19769 5.1134 8.06097 6.2335C6.92425 7.3536 6.28564 8.87278 6.28564 10.4568V17.6241L9.88456 17.6204Z" fill="#FF615E"/>
<path d="M33.195 21.4018V28.5615C33.195 29.2051 32.9356 29.8222 32.4738 30.2773C32.012 30.7323 31.3857 30.988 30.7326 30.988H23.459V34.5343H30.7326C32.3401 34.5343 33.8819 33.905 35.0186 32.7849C36.1553 31.6648 36.7939 30.1456 36.7939 28.5615V21.3943L33.195 21.4018Z" fill="#944CCD"/>
<path d="M23.459 8.03043H30.7326C31.3857 8.03043 32.012 8.28607 32.4738 8.74111C32.9356 9.19615 33.195 9.81332 33.195 10.4568V17.6241H36.7939V10.4568C36.7939 8.87278 36.1553 7.3536 35.0186 6.2335C33.8819 5.1134 32.3401 4.48413 30.7326 4.48413H23.459V8.03043Z" fill="#FFB524"/>
<path d="M19.6206 30.988H12.347C11.6939 30.988 11.0676 30.7323 10.6058 30.2773C10.144 29.8222 9.88456 29.2051 9.88456 28.5615V21.3943H6.28564V28.5615C6.28564 30.1456 6.92425 31.6648 8.06097 32.7849C9.19769 33.905 10.7394 34.5343 12.347 34.5343H19.6206V30.988Z" fill="#4DCCC4"/>
</g>
<defs>
<clipPath id="clip0_547_826">
<rect width="32.6857" height="33.9773" fill="white" transform="translate(6.28564 2.5)"/>
</clipPath>
</defs>
</svg>
